# xmcd CD database file
#
# Track frame offsets:
#	150
#	15493
#	31939
#	49875
#	71729
#	91045
#	112517
#	136680
#	158656
#	172381
#
# Disc length: 2526 seconds
#
# Revision: 0
# Processed by: cddbd v1.5.1PL0 Copyright (c) Steve Scherf et al.
# Submitted via: CDex 1.51
#
DISCID=7209dc0a
DTITLE=Robin Rogers Band - Mama Ham
DYEAR=1900
DGENRE=Blues
TTITLE0=You Say Your Leaving
TTITLE1=If I'm Waiting
TTITLE2=Come Together
TTITLE3=Guilty
TTITLE4=Long John Blues
TTITLE5=Don't Walk Away
TTITLE6=Time For Myself
TTITLE7=Mr. Mojo
TTITLE8=Gotta Let You Go
TTITLE9=The Road's My Middle Name
EXTD=
EXTT0=
EXTT1=
EXTT2=
EXTT3=
EXTT4=
EXTT5=
EXTT6=
EXTT7=
EXTT8=
EXTT9=
PLAYORDER=
